<!DOCTYPE svg PUBLIC "-//W3C//DTD SVG 20010904//EN" "http://www.w3.org/TR/2001/REC-SVG-20010904/DTD/svg10.dtd">
<svg version="1.0" xmlns="http://www.w3.org/2000/svg" width="16px" height="17px" viewBox="0 0 160 170" preserveAspectRatio="xMidYMid meet">
<g id="layer101" fill="#ff0000" stroke="none">
 <path d="M12 158 c-17 -17 -15 -32 8 -53 l20 -18 -20 -22 c-24 -26 -25 -38 -5 -55 13 -11 20 -9 40 10 l25 23 25 -23 c20 -19 27 -21 40 -10 20 17 19 33 -5 55 l-20 18 21 23 c18 19 20 26 9 39 -16 19 -29 19 -52 -2 -17 -15 -20 -15 -41 5 -27 26 -29 26 -45 10z"/>
 </g>

</svg>